 http://s18.postimage.org/68cxcgu21/Prid.png



Pridyider [2012] DVDRip EP



info:

Imdb                             : http://www.imdb.com/title/tt2378000/
Genres                           : Horror 
Writers                          : Rico Maria Ilarde (screenplay), Rona Lean Sales (screenplay)
Director                         : Rico Maria Ilarde
Audio Language                   : Filipino | Tagalog
Country                          : Philippines
SUBTITLE                         : English Sub (Included)



General
Complete name                            : Pridyider [2012] DVDRip EP.avi
Format                                   : AVI
Format/Info                              : Audio Video Interleave
File size                                : 1.38 GiB
Duration                                 : 1h 30mn
Overall bit rate                         : 2 177 Kbps
Writing application                      : VirtualDubMod

Video
ID                                       : 0
Format                                   : AVC
Format/Info                              : Advanced Video Codec
Format profile                           : High@L3.1
Format settings, CABAC                   : Yes
Format settings, ReFrames                : 3 frames
Codec ID                                 : H264
Duration                                 : 1h 30mn
Bit rate                                 : 1 976 Kbps
Width                                    : 1 280 pixels
Height                                   : 716 pixels
Display aspect ratio                     : 16:9
Frame rate                               : 25.000 fps
Color space                              : YUV
Chroma subsampling                       : 4:2:0
Bit depth                                : 8 bits
Scan type                                : Progressive
Bits/(Pixel*Frame)                       : 0.086
Stream size                              : 1.25 GiB (91%)
Writing library                          : x264 core 119 r2106kMod 07efeb4
Encoding settings                        : cabac=1 / ref=3 / deblock=1:0:0

Audio
ID                                       : 1
Format                                   : MPEG Audio
Format version                           : Version 1
Format profile                           : Layer 3
Codec ID                                 : 55
Codec ID/Hint                            : MP3
Duration                                 : 1h 30mn
Bit rate mode                            : Constant
Bit rate                                 : 192 Kbps
Channel(s)                               : 2 channels
Sampling rate                            : 44.1 KHz
Compression mode                         : Lossy
Stream size                              : 125 MiB (9%)
Alignment                                : Split accross interleaves
Interleave, duration                     : 40 ms (1.00 video frame)
Interleave, preload duration             : 500 ms
Writing library                          : LAMELAME_MAJOR_VERSI





cast:


Janice de Belen as Mrs. Benitez/Tina's Mom

Andi Eigenmann as Tina Benitez

JM De Guzman as James/Boyfriend of Tina

Venus Raj as Celine

Baron Geisler as ex-Boyfriend of Tina

Ronnie Lazaro as Detective Albay

Joel Torre as Mr. Benitez/Tina's Father

Bekimon as Maid of Celine




plot:


The story is about Tina Benitez (Andi Eigenmann) comes home from abroad to an empty house that she inherited from her parents.

Not before long, strange things happen in the house, particularly in the kitchen, where an antique refrigerator is located.[/b]



ScreenShot:

 
http://s18.postimage.org/f8cxix0rt/image.jpg 
http://s18.postimage.org/wzt5b45k9/image.jpg 
http://s18.postimage.org/lbz3gkgfd/image.jpg 
http://s18.postimage.org/y4n7ghs15/image.jpg 
http://s18.postimage.org/bh7yacch5/image.jpg 
http://s18.postimage.org/fev7zqzah/image.jpg